<?xml version="1.0" encoding="iso-8859-1"?>
<!-- Generator: Adobe Illustrator 19.0.0, SVG Export Plug-In . SVG Version: 6.00 Build 0)  -->
<svg version="1.1" id="Layer_1" xmlns="http://www.w3.org/2000/svg" xmlns:xlink="http://www.w3.org/1999/xlink" x="0px" y="0px"
	 viewBox="0 0 512 512" style="enable-background:new 0 0 512 512;" xml:space="preserve">
<circle style="fill:#B2E3FF;" cx="256" cy="256" r="256"/>
<path style="fill:#DA626A;" d="M212,216c-94.996,0-172,77.004-172,172c0,1.86,0.084,3.7,0.14,5.548
	C85.6,464.752,165.256,512,256,512c31.728,0,62.08-5.812,90.108-16.36C369.796,466.168,384,428.752,384,388
	C384,293.004,306.996,216,212,216z M212,460c-39.756,0-72-32.24-72-72s32.244-72,72-72s72,32.24,72,72S251.756,460,212,460z"/>
<path style="fill:#E5B660;" d="M212,236c-83.944,0-152,68.052-152,152c0,13.2,1.688,26.008,4.852,38.22
	C111.744,478.832,179.98,512,256,512c17.3,0,34.188-1.74,50.528-5.012C341.532,479.144,364,436.208,364,388
	C364,304.052,295.944,236,212,236z M212,460c-39.756,0-72-32.24-72-72s32.244-72,72-72s72,32.24,72,72S251.756,460,212,460z"/>
<path style="fill:#F0E092;" d="M212,256c-72.908,0-132,59.096-132,132c0,26.58,7.884,51.3,21.4,72.012
	C144.356,492.62,197.908,512,256,512c0.488,0,0.968-0.036,1.456-0.036C307.96,493.436,344,444.928,344,388
	C344,315.096,284.908,256,212,256z M212,460c-39.756,0-72-32.24-72-72s32.244-72,72-72s72,32.24,72,72S251.756,460,212,460z"/>
<path style="fill:#51B09B;" d="M212,276c-61.856,0-112,50.144-112,112s50.144,112,112,112s112-50.144,112-112S273.856,276,212,276z
	 M212,460c-39.756,0-72-32.24-72-72s32.244-72,72-72s72,32.24,72,72S251.756,460,212,460z"/>
<path style="fill:#2D9496;" d="M212,296c-50.808,0-92,41.192-92,92s41.192,92,92,92s92-41.192,92-92S262.808,296,212,296z M212,458
	c-38.656,0-70-31.344-70-70s31.344-70,70-70s70,31.344,70,70S250.656,458,212,458z"/>
<path style="fill:#45998B;" d="M20.128,355.668C58.996,447.54,149.972,512,256,512c0.752,0,1.492-0.052,2.244-0.056
	C245.42,421.7,161.584,352,60,352C46.344,352,33.016,353.268,20.128,355.668z"/>
<path style="fill:#3F8C7F;" d="M60,352c-3.752,0-7.476,0.116-11.176,0.304c96.276,4.836,174.368,72.316,187.06,158.908
	C242.516,511.732,249.228,512,256,512c0.752,0,1.492-0.052,2.244-0.056C245.42,421.7,161.584,352,60,352z"/>
<path style="fill:#198058;" d="M144.968,486.736C178.564,502.924,216.22,512,256,512c127.064,0,232.444-92.588,252.504-213.964
	C481.836,291.532,453.452,288,423.996,288C276.908,288,156.392,375.524,144.968,486.736z"/>
<path style="fill:#16734F;" d="M436.344,288.228c-4.092-0.136-8.208-0.228-12.348-0.228c-147.088,0-267.604,87.524-279.028,198.736
	c7.916,3.816,16.08,7.208,24.42,10.208C184.592,382.464,297.408,292.804,436.344,288.228z"/>
<g>
	
		<rect x="355.353" y="64.133" transform="matrix(0.7072 -0.707 0.707 0.7072 54.5625 280.0098)" style="fill:#FFF8E6;" width="19.996" height="19.992"/>
	
		<rect x="355.347" y="169.125" transform="matrix(0.7072 -0.707 0.707 0.7072 -19.6675 310.7463)" style="fill:#FFF8E6;" width="19.996" height="19.988"/>
	
		<rect x="302.894" y="116.624" transform="matrix(-0.7071 -0.7071 0.7071 -0.7071 444.6055 437.4023)" style="fill:#FFF8E6;" width="19.996" height="19.992"/>
	
		<rect x="407.876" y="116.64" transform="matrix(-0.7072 -0.707 0.707 -0.7072 623.8637 511.6375)" style="fill:#FFF8E6;" width="19.996" height="19.996"/>
	<rect x="318.24" y="79.512" style="fill:#FFF8E6;" width="19.992" height="19.996"/>
	<rect x="392.48" y="153.744" style="fill:#FFF8E6;" width="19.996" height="20"/>
	<rect x="318.24" y="153.744" style="fill:#FFF8E6;" width="19.992" height="20"/>
	<rect x="392.48" y="79.512" style="fill:#FFF8E6;" width="19.996" height="19.996"/>
</g>
<circle style="fill:#FFEAB3;" cx="365.36" cy="126.624" r="57.488"/>
<circle style="fill:#FFDC80;" cx="365.36" cy="126.624" r="49.988"/>
<path style="fill:#F5F5F5;" d="M235.652,120.132c0.14-1.592,0.224-3.212,0.224-4.844c0-29.744-23.864-53.852-53.296-53.852
	c-25.696,0-47.148,18.376-52.18,42.828c-0.164,0-0.32-0.016-0.476-0.016c-18.74,0-33.916,15.132-33.916,33.876
	c0,18.732,15.184,33.876,33.916,33.876h91.416c15.524,0,28.104-12.464,28.104-27.9C249.444,133.876,243.908,125,235.652,120.132z"/>
<g>
	<path style="fill:#E6E6E6;" d="M235.652,120.132c0.14-1.592,0.224-3.212,0.224-4.844c0-29.744-23.864-53.852-53.296-53.852
		c-1.268,0-2.508,0.08-3.752,0.164c27.572,2.076,49.296,25.312,49.296,53.688c0,1.632-0.084,3.252-0.228,4.844
		c8.252,4.868,13.784,13.744,13.784,23.968c0,15.428-12.576,27.9-28.096,27.9h7.752c15.524,0,28.1-12.464,28.1-27.9
		C249.444,133.876,243.908,125,235.652,120.132z"/>
	<path style="fill:#E6E6E6;" d="M131.916,98.584c-0.672,2.224-1.28,4.64-1.508,5.664c-0.164,0-0.328,0-0.484,0
		c-6.084,0-11.776,1.612-16.72,4.416c4.268-1.588,8.924-2.484,13.804-2.484c10.52,0,20,4.06,26.7,10.584
		C149.868,108.236,139.956,99.5,131.916,98.584z"/>
</g>
<g>
</g>
<g>
</g>
<g>
</g>
<g>
</g>
<g>
</g>
<g>
</g>
<g>
</g>
<g>
</g>
<g>
</g>
<g>
</g>
<g>
</g>
<g>
</g>
<g>
</g>
<g>
</g>
<g>
</g>
</svg>
